<?xml version="1.0" encoding="UTF-8"?>
<svg version="1.1" viewBox="0 0 1381 280" xml:space="preserve" xmlns="http://www.w3.org/2000/svg" xmlns:cc="http://creativecommons.org/ns#" xmlns:dc="http://purl.org/dc/elements/1.1/" xmlns:rdf="http://www.w3.org/1999/02/22-rdf-syntax-ns#"><metadata><rdf:RDF><cc:Work rdf:about=""><dc:format>image/svg+xml</dc:format><dc:type rdf:resource="http://purl.org/dc/dcmitype/StillImage"/><dc:title/></cc:Work></rdf:RDF></metadata>
<style type="text/css">
	.st0{fill:#00537E;}
	.st1{fill:#009A01;}
</style>
<g transform="translate(-270 -427)">
		<path class="st0" d="m270 493h36.2v12.6c9.9-9.5 20.9-14.2 33.2-14.2 15.2 0 26.8 6.4 34.8 19.2 8.1-12.9 19.7-19.4 34.8-19.4 4.8 0 9.3 0.7 13.6 2.1s7.9 3.6 11 6.6 5.5 6.9 7.3 11.7 2.7 10.6 2.7 17.4v66.6h-36.2v-50.6c0-5.2-0.4-9.5-1.1-12.8s-1.8-5.9-3.2-7.8-3-3.1-4.9-3.8-3.9-1-6-1c-11.6 0-17.4 8.5-17.4 25.4v50.6h-36.2v-50.6c0-5.2-0.3-9.5-1-12.9s-1.6-6.1-2.9-8.1-2.9-3.4-4.9-4.1-4.3-1.1-7-1.1c-2.3 0-4.4 0.3-6.4 1s-3.8 2-5.3 3.9-2.7 4.6-3.6 8-1.3 7.8-1.3 13.3v50.6h-36.2z"/>
		<path class="st0" d="m504 493v57.8c0 12.7 6.1 19 18.4 19s18.4-6.3 18.4-19v-57.8h36.2v64.8c0 13.9-4.6 24.3-13.7 31.2s-22.8 10.4-40.9 10.4-31.8-3.5-40.9-10.4-13.7-17.3-13.7-31.3v-64.8h36.2z"/>
		<path class="st0" d="m670 519c-6.7-3.5-13.2-5.2-19.6-5.2-3.3 0-6 0.7-8.1 2s-3.1 3.1-3.1 5.4c0 1.2 0.2 2.2 0.5 2.9s1.1 1.4 2.2 2.1 2.8 1.3 5 1.8 5.1 1.2 8.7 2c10 2 17.5 5.6 22.4 10.7s7.4 11.7 7.4 19.7c0 6-1.2 11.4-3.6 16.2s-5.7 8.8-10 12.1-9.4 5.8-15.4 7.6-12.6 2.7-19.8 2.7c-13.9 0-27.5-3.9-41-11.8l13.2-25.6c10.1 6.9 19.7 10.4 28.8 10.4 3.3 0 6.1-0.7 8.2-2.2s3.2-3.3 3.2-5.6c0-1.3-0.2-2.4-0.5-3.3s-1-1.7-2.1-2.4-2.6-1.4-4.7-2-4.8-1.2-8.1-1.9c-11.2-2.3-19-5.6-23.5-10.1s-6.7-10.6-6.7-18.5c0-5.7 1.1-10.9 3.2-15.5s5.2-8.5 9.2-11.7 8.8-5.7 14.5-7.4 12-2.6 18.9-2.6c11.3 0 22.3 2.2 33 6.6z"/>
		<path class="st0" d="m701 454c0-2.8 0.5-5.4 1.6-7.9s2.5-4.6 4.4-6.5 4-3.3 6.5-4.4 5.1-1.6 7.9-1.6 5.4 0.5 7.9 1.6 4.6 2.5 6.5 4.4 3.3 4 4.4 6.5 1.6 5.1 1.6 7.9-0.5 5.4-1.6 7.9-2.5 4.6-4.4 6.5-4 3.3-6.5 4.4-5.1 1.6-7.9 1.6-5.4-0.5-7.9-1.6-4.6-2.5-6.5-4.4-3.3-4-4.4-6.5-1.6-5.2-1.6-7.9zm38.6 39.3v103h-36.2v-103z"/>
		<path class="st0" d="m842 526c-6.3-4.3-12.6-6.4-19-6.4-3.5 0-6.7 0.6-9.7 1.8s-5.6 2.9-7.9 5.1-4 4.8-5.3 7.8-1.9 6.4-1.9 10.1c0 3.6 0.6 6.9 1.9 9.9s3 5.6 5.2 7.8 4.8 3.9 7.9 5.1 6.3 1.8 9.8 1.8c6.8 0 13.1-2.3 19-7v30.8c-8.9 3.9-17.4 5.8-25.4 5.8-7.5 0-14.6-1.3-21.3-3.8s-12.7-6.2-17.8-10.9-9.2-10.4-12.3-17-4.6-14-4.6-22.1 1.5-15.6 4.4-22.3 6.9-12.5 12-17.4 11.1-8.7 18.1-11.4 14.5-4.1 22.5-4.1c8.8 0 16.9 1.9 24.4 5.6z"/>
		<path class="st1" d="m1140 493h36.4v103h-36.4v-11.4c-7.7 9.7-18.2 14.6-31.4 14.6-7.5 0-14.3-1.4-20.6-4.1s-11.7-6.6-16.4-11.5-8.3-10.7-10.9-17.4-3.9-13.9-3.9-21.8c0-7.3 1.3-14.3 3.8-20.9s6.1-12.4 10.6-17.3 9.9-8.8 16.2-11.7 13.2-4.3 20.8-4.3c12.8 0 23.4 4.5 31.8 13.4zm-45.5 51c0 3.3 0.6 6.4 1.8 9.3s2.8 5.4 4.9 7.5 4.5 3.8 7.4 5 6 1.8 9.3 1.8c3.2 0 6.2-0.6 9.1-1.8s5.3-2.9 7.4-5 3.7-4.6 5-7.4 1.9-5.8 1.9-9-0.6-6.2-1.9-9.1-2.9-5.4-5-7.5-4.5-3.8-7.4-5-5.9-1.8-9.1-1.8c-3.3 0-6.4 0.6-9.3 1.8s-5.3 2.9-7.4 5-3.7 4.6-4.9 7.3c-1.1 2.8-1.8 5.6-1.8 8.9z"/>
		<path class="st1" d="m1316 493v95.6c0 5.7-0.3 10.9-1 15.4s-1.6 8.5-2.8 12c-1.6 4.4-4.1 8.5-7.5 12.3s-7.5 7.1-12.3 9.9-10.2 5-16.3 6.6-12.6 2.4-19.7 2.4c-8 0-15.3-1-22-3s-12.5-4.8-17.5-8.3-9.1-7.7-12.3-12.4-5.3-9.9-6.4-15.5h40.8c2.5 6.8 8.3 10.2 17.2 10.2 7.6 0 13.4-2.1 17.5-6.4s6.1-10.2 6.1-17.8v-9.8c-2.7 2.5-5.2 4.6-7.7 6.3s-5 3-7.5 4.1-5.2 1.8-8 2.3-5.9 0.7-9.2 0.7c-7.3 0-14.1-1.3-20.2-3.8s-11.4-6.1-15.9-10.6-7.9-10-10.4-16.3-3.7-13.4-3.7-21.1c0-7.9 1.3-15.2 4-21.9s6.3-12.6 10.9-17.6 10.1-8.9 16.4-11.8 13.2-4.3 20.7-4.3c12.1 0 22.3 4.5 30.6 13.6v-10.8zm-81.2 50.7c0 3.3 0.6 6.4 1.8 9.3s2.8 5.4 4.9 7.5 4.5 3.8 7.4 5 6 1.8 9.3 1.8c3.2 0 6.2-0.6 9.1-1.8s5.3-2.9 7.4-5 3.7-4.6 5-7.5 1.9-5.9 1.9-9.1c0-3.3-0.6-6.4-1.9-9.2s-3-5.3-5.1-7.4-4.6-3.8-7.5-5-5.8-1.8-8.9-1.8c-3.2 0-6.2 0.6-9 1.9s-5.3 2.9-7.4 5-3.8 4.5-5.1 7.3c-1.4 2.9-1.9 5.9-1.9 9z"/>
		<path class="st1" d="m1478 454c0-2.8 0.5-5.4 1.6-7.9s2.5-4.6 4.4-6.5 4-3.3 6.5-4.4 5.1-1.6 7.9-1.6 5.4 0.5 7.9 1.6 4.6 2.5 6.5 4.4 3.3 4 4.4 6.5 1.6 5.1 1.6 7.9-0.5 5.4-1.6 7.9-2.5 4.6-4.4 6.5-4 3.3-6.5 4.4-5.1 1.6-7.9 1.6-5.4-0.5-7.9-1.6-4.6-2.5-6.5-4.4-3.3-4-4.4-6.5-1.6-5.2-1.6-7.9zm38.5 39.3v103h-36.2v-103z"/>
		<path class="st1" d="m1574 550c0 15.6 7.3 23.4 22 23.4 7.9 0 13.8-3.2 17.8-9.6h35c-7.1 23.5-24.7 35.2-53 35.2-8.7 0-16.6-1.3-23.8-3.9s-13.4-6.3-18.5-11.1-9.1-10.5-11.9-17.2-4.2-14.1-4.2-22.4c0-8.5 1.3-16.2 4-23.1s6.5-12.7 11.4-17.5 10.9-8.5 17.9-11.1 14.9-3.9 23.7-3.9c8.7 0 16.5 1.3 23.4 3.9s12.8 6.4 17.6 11.3 8.5 11 11 18.1 3.8 15.2 3.8 24.1v3.8zm42.3-21c-1.2-5.1-3.7-9.1-7.4-12.2s-8.3-4.6-13.6-4.6c-5.6 0-10.2 1.5-13.7 4.4s-5.8 7.1-6.7 12.4z"/>
		<path class="st1" d="m1456 523c-2.6-6.7-6.2-12.5-10.9-17.4s-10.2-8.8-16.5-11.7-13.2-4.3-20.5-4.3c-13.3 0-23.9 4.9-31.6 14.6v-11.4h-36.2v154h36.2v-61.2l10.1-6.9s27.8-16 33.4-47c0 0-16.1 35.5-33.7 41.4 0 0-17.2-13.2 2.7-35.2 0 0 5.6-5.6 13-9.5 0 0 14.3-8.4 22.3-23.4 0 0 20.6 36.1 1.2 64.3 0 0-7 13.8-27.5 11.6-3.7-0.2-8.2 2.3-8.2 2.3-3.1 2-6.8 4.2-9.1 5.5-0.2 0.1-0.4 0.1-0.6 0.2 7.9 6.6 17.3 9.9 28.4 9.9 7.3 0 14.1-1.4 20.4-4.2s11.7-6.7 16.3-11.6 8.2-10.7 10.8-17.2 3.9-13.6 3.9-21.2c0-7.5-1.2-14.6-3.9-21.3z"/>
		<path class="st1" d="m857 596 25.8-152h39.1l30.5 81 30.3-81.1h39.1l25.8 152h-39.3l-13.1-87.5-35.9 87.5h-15.7l-34.1-87.5-13.1 87.5z"/>
</g>
</svg>
